<svg width="25" height="28" viewBox="0 0 25 28" fill="none" xmlns="http://www.w3.org/2000/svg">
<path d="M25 20.2998C25 20.5529 24.9319 20.8012 24.803 21.0184C24.6741 21.2355 24.4893 21.4134 24.2681 21.5331L13.2861 27.753C13.055 27.9138 12.7808 28 12.5 28C12.2192 28 11.945 27.9138 11.7139 27.753L0.731944 21.5331C0.510738 21.4134 0.325858 21.2355 0.196972 21.0184C0.0680868 20.8012 1.56737e-05 20.5529 0 20.2998V7.7005C1.56737e-05 7.44744 0.0680868 7.19911 0.196972 6.98194C0.325858 6.76477 0.510738 6.58687 0.731944 6.46717L11.7139 0.24732C11.9449 0.0862716 12.2191 0 12.5 0C12.7809 0 13.0551 0.0862716 13.2861 0.24732L24.2681 6.46717C24.4893 6.58687 24.6741 6.76477 24.803 6.98194C24.9319 7.19911 25 7.44744 25 7.7005V20.2998ZM3.47222 17.2424C2.70556 16.8042 2.08333 17.0772 2.08333 17.8499C2.08333 18.6227 2.70556 19.604 3.47222 20.0422C4.23889 20.4804 4.86111 20.2074 4.86111 19.4346C4.86111 18.6619 4.23889 17.6805 3.47222 17.2424V17.2424ZM3.47222 11.6427C2.70556 11.2045 2.08333 11.4775 2.08333 12.2502C2.08333 13.023 2.70556 14.0043 3.47222 14.4425C4.23889 14.8807 4.86111 14.6077 4.86111 13.835C4.86111 13.0622 4.23889 12.0809 3.47222 11.6427ZM9.02778 20.4118C8.26111 19.9736 7.63889 20.2466 7.63889 21.0194C7.63889 21.7921 8.26111 22.7735 9.02778 23.2116C9.79444 23.6484 10.4167 23.3768 10.4167 22.6041C10.4167 21.8299 9.79444 20.8486 9.02778 20.4118ZM6.25 16.0272C5.48333 15.5891 4.86111 15.862 4.86111 16.6348C4.86111 17.4076 5.48333 18.3889 6.25 18.8271C7.01667 19.2639 7.63889 18.9923 7.63889 18.2195C7.63889 17.4454 7.01667 16.464 6.25 16.0272ZM9.02778 14.8121C8.26111 14.3739 7.63889 14.6455 7.63889 15.4197C7.63889 16.1924 8.26111 17.1738 9.02778 17.6119C9.79444 18.0487 10.4167 17.7771 10.4167 17.0044C10.4167 16.2302 9.79444 15.2489 9.02778 14.8121ZM21.5278 17.2424C20.7611 17.6805 20.1389 18.6619 20.1389 19.4346C20.1389 20.2074 20.7611 20.479 21.5278 20.0422C22.2944 19.604 22.9167 18.6227 22.9167 17.8499C22.9167 17.0772 22.2944 16.8042 21.5278 17.2424ZM21.5278 11.6427C20.7611 12.0809 20.1389 13.0622 20.1389 13.835C20.1389 14.6077 20.7611 14.8807 21.5278 14.4425C22.2944 14.0043 22.9167 13.023 22.9167 12.2502C22.9167 11.4775 22.2944 11.2045 21.5278 11.6427ZM15.9722 20.4118C15.2056 20.8486 14.5833 21.8313 14.5833 22.6041C14.5833 23.3768 15.2056 23.6484 15.9722 23.2116C16.7389 22.7735 17.3611 21.7921 17.3611 21.0194C17.3611 20.2466 16.7389 19.9736 15.9722 20.4118ZM15.9722 14.8121C15.2056 15.2489 14.5833 16.2316 14.5833 17.0044C14.5833 17.7771 15.2056 18.0487 15.9722 17.6119C16.7389 17.1738 17.3611 16.1924 17.3611 15.4197C17.3611 14.6469 16.7389 14.3739 15.9722 14.8121ZM18.7389 8.07848C19.4986 7.62911 19.575 6.95015 18.9111 6.56377C18.2472 6.17739 17.0917 6.22779 16.3333 6.67996C15.5736 7.13073 15.4972 7.8097 16.1611 8.19608C16.825 8.58245 17.9806 8.53066 18.7389 8.07988V8.07848ZM8.42639 8.54466C9.18611 8.09388 9.26389 7.41492 8.59861 7.02854C7.93472 6.64216 6.78056 6.69396 6.02083 7.14473C5.26111 7.59551 5.18472 8.27447 5.84861 8.66085C6.5125 9.04723 7.66806 8.99683 8.42639 8.54466V8.54466ZM13.5833 8.31227C14.3417 7.86149 14.4194 7.18253 13.7556 6.79615C13.0903 6.40978 11.9361 6.46157 11.1764 6.91235C10.4181 7.36312 10.3403 8.04208 11.0042 8.42846C11.6694 8.81484 12.8236 8.76304 13.5833 8.31227Z" fill="#A6E1FA"/>
</svg>
