<svg width="32" height="32" viewBox="0 0 32 32" fill="none" xmlns="http://www.w3.org/2000/svg">
<g id="directions_boat_24px">
<path id="icon/maps/directions_boat_24px" fill-rule="evenodd" clip-rule="evenodd" d="M12.0015 1.33337H20.0015V5.33337H24.0015C25.4682 5.33337 26.6682 6.53337 26.6682 8.00004V14.16L28.3749 14.72C28.7215 14.8267 29.0149 15.0667 29.1749 15.3867C29.3349 15.7067 29.3615 16.08 29.2549 16.4267L26.7349 25.3334H26.6682C24.5349 25.3334 22.6415 24.16 21.3349 22.6667C20.0282 24.16 18.1349 25.3334 16.0015 25.3334C13.8682 25.3334 11.9749 24.16 10.6682 22.6667C9.36154 24.16 7.46821 25.3334 5.33487 25.3334H5.26821L2.73487 16.4267C2.61487 16.08 2.65487 15.7067 2.81487 15.3867C2.97487 15.0667 3.26821 14.8267 3.61487 14.72L5.33487 14.16V8.00004C5.33487 6.53337 6.53487 5.33337 8.00154 5.33337H12.0015V1.33337ZM17.3349 4.00004V5.33337H14.6682V4.00004H17.3349ZM16.0015 13.48L23.1749 15.84L26.3615 16.88L24.8682 22.1734C24.1482 21.7734 23.6149 21.2267 23.3482 20.92L21.3349 18.6134L19.3215 20.9067C18.8682 21.44 17.6149 22.6667 16.0015 22.6667C14.3882 22.6667 13.1349 21.44 12.6815 20.9067L10.6682 18.6134L8.65488 20.9067C8.38821 21.2134 7.85488 21.7467 7.13488 22.1467L5.62821 16.8667L8.82821 15.8134L16.0015 13.48ZM8.00154 13.2934V8.00004H24.0015V13.2934L16.0015 10.6667L8.00154 13.2934ZM16.0015 27.9467C17.8549 27.9467 19.7082 27.3734 21.3349 26.2401C22.9615 27.3734 24.8149 28.0001 26.6682 28.0001H29.3349V30.6667H26.6682C24.8282 30.6667 23.0149 30.2134 21.3349 29.3467C19.6549 30.2134 17.8282 30.6401 16.0015 30.6401C14.1749 30.6401 12.3482 30.2001 10.6682 29.3467C8.9882 30.2001 7.17487 30.6667 5.33487 30.6667H2.6682V28.0001H5.33487C7.1882 28.0001 9.04154 27.3734 10.6682 26.2401C12.2949 27.3734 14.1482 27.9467 16.0015 27.9467Z" fill="#719698"/>
</g>
</svg>
