<svg width="19" height="19" viewBox="0 0 19 19" fill="none" xmlns="http://www.w3.org/2000/svg">
<g id="local_offer_24px">
<path id="icon/maps/local_offer_24px" fill-rule="evenodd" clip-rule="evenodd" d="M16.9496 9.16754L9.82459 2.04254C9.53959 1.75754 9.14376 1.58337 8.70834 1.58337H3.16668C2.29584 1.58337 1.58334 2.29587 1.58334 3.16671V8.70837C1.58334 9.14379 1.75751 9.53962 2.05043 9.83254L9.17543 16.9575C9.46043 17.2425 9.85626 17.4167 10.2917 17.4167C10.7271 17.4167 11.1229 17.2425 11.4079 16.9496L16.9496 11.408C17.2425 11.123 17.4167 10.7271 17.4167 10.2917C17.4167 9.85629 17.2346 9.45254 16.9496 9.16754ZM10.2917 15.8413L3.16668 8.70838V3.16671H8.70834V3.15879L15.8333 10.2838L10.2917 15.8413ZM3.95834 5.14587C3.95834 4.49004 4.49001 3.95837 5.14584 3.95837C5.80168 3.95837 6.33334 4.49004 6.33334 5.14587C6.33334 5.80171 5.80168 6.33337 5.14584 6.33337C4.49001 6.33337 3.95834 5.80171 3.95834 5.14587Z" fill="#719698"/>
</g>
</svg>
