<svg width="80" height="84" viewBox="0 0 80 84" fill="none" xmlns="http://www.w3.org/2000/svg">
<g id="whatshot_24px" filter="url(#filter0_dd)">
<path id="icon/social/whatshot_24px" fill-rule="evenodd" clip-rule="evenodd" d="M45 4.45007C45 4.45007 47.4667 13.2834 47.4667 20.4501C47.4667 27.3167 42.9667 32.8834 36.1 32.8834C29.2 32.8834 24 27.3167 24 20.4501L24.1 19.2501C17.3667 27.2501 13.3333 37.6167 13.3333 48.8834C13.3333 63.6167 25.2667 75.5501 40 75.5501C54.7333 75.5501 66.6667 63.6167 66.6667 48.8834C66.6667 30.9167 58.0333 14.8834 45 4.45007ZM38.5667 46.0834C34.0333 47.0167 31.3333 49.9501 31.3333 54.1167C31.3333 58.5834 35.0333 62.1834 39.6333 62.1834C46.4667 62.1834 52 56.6501 52 49.8167C52 46.2501 51.5 42.7501 50.4667 39.4167C47.8333 42.9834 43.1333 45.1501 38.5667 46.0834ZM20 48.8834C20 59.9167 28.9667 68.8834 40 68.8834C51.0333 68.8834 60 59.9167 60 48.8834C60 40.3501 57.8 32.1167 53.7 24.7834C51.9333 33.4501 44.9667 39.5501 36.1 39.5501C30.9 39.5501 26.2333 37.4834 22.8667 34.1167C21 38.7501 20 43.7834 20 48.8834Z" fill="#EB5757"/>
</g>
<defs>
<filter id="filter0_dd" x="-4" y="0" width="88" height="88" filterUnits="userSpaceOnUse" color-interpolation-filters="sRGB">
<feFlood flood-opacity="0" result="BackgroundImageFix"/>
<feColorMatrix in="SourceAlpha" type="matrix" values="0 0 0 0 0 0 0 0 0 0 0 0 0 0 0 0 0 0 127 0"/>
<feOffset dy="4"/>
<feGaussianBlur stdDeviation="2"/>
<feColorMatrix type="matrix" values="0 0 0 0 0 0 0 0 0 0 0 0 0 0 0 0 0 0 0.25 0"/>
<feBlend mode="normal" in2="BackgroundImageFix" result="effect1_dropShadow"/>
<feColorMatrix in="SourceAlpha" type="matrix" values="0 0 0 0 0 0 0 0 0 0 0 0 0 0 0 0 0 0 127 0"/>
<feOffset dy="4"/>
<feGaussianBlur stdDeviation="2"/>
<feColorMatrix type="matrix" values="0 0 0 0 0 0 0 0 0 0 0 0 0 0 0 0 0 0 0.25 0"/>
<feBlend mode="normal" in2="effect1_dropShadow" result="effect2_dropShadow"/>
<feBlend mode="normal" in="SourceGraphic" in2="effect2_dropShadow" result="shape"/>
</filter>
</defs>
</svg>
